<svg xmlns="http://www.w3.org/2000/svg" viewBox="0 0 64 64"><rect width="64" height="64" rx="12" fill="#0A192F"/><path d="M33.600341796875 708Q59.400146484375 707 101.49981689453125 706.0Q143.5994873046875 705 185.59912109375 705Q234.3990478515625 705 279.198974609375 706.0Q323.9989013671875 707 342.598876953125 707Q482.1981201171875 707 550.8977661132812 652.0Q619.597412109375 597 619.597412109375 510Q619.597412109375 474 605.7974853515625 434.5Q591.99755859375 395 558.5977172851562 361.5Q525.1978759765625 328 467.29815673828125 307.0Q409.3984375 286 320.598876953125 286H218.59912109375V306H310.598876953125Q369.599365234375 306 400.4996337890625 333.0Q431.39990234375 360 442.5 404.0Q453.60009765625 448 453.60009765625 499Q453.60009765625 594 425.69970703125 641.0Q397.79931640625 688 329.598388671875 688Q290.798095703125 688 279.197998046875 671.0Q267.597900390625 654 267.597900390625 602V111.999755859375Q267.597900390625 72.9998779296875 275.6978759765625 53.7999267578125Q283.7978515625 34.5999755859375 306.997802734375 28.5999755859375Q330.19775390625 22.5999755859375 374.59765625 21.7999267578125V0Q343.7978515625 1.4000244140625 294.7982177734375 2.20001220703125Q245.798583984375 3 192.1990966796875 3Q148.999267578125 3 107.799560546875 2.20001220703125Q66.599853515625 1.4000244140625 33.600341796875 0V20Q65.8004150390625 22 81.80047607421875 28.0Q97.800537109375 34 103.2005615234375 52.0Q108.6005859375 70 108.6005859375 106V602Q108.6005859375 639 103.2005615234375 656.5Q97.800537109375 674 81.50048828125 680.5Q65.200439453125 687 33.600341796875 688Z" transform="translate(17 46) scale(.047 -.047)" fill="#FFFFFF"/><path d="M17 53h28" stroke="#B8924A" stroke-width="3"/></svg>